<svg xmlns="http://www.w3.org/2000/svg" width="34.187" height="28" viewBox="0 0 34.187 28"><path d="M1823.129,921.6a6.923,6.923,0,0,1,4.48-8.041c3.509-1.589,7.085,1.811,7.085,1.811l4.273-1.706c0,1.831-3.053,3.663-3.053,3.663a14.9,14.9,0,0,0,4.273-.611c0,.611-3.663,3.663-3.663,3.663,0,14.652-10.989,20.757-20.146,20.757S1806,937.473,1806,937.473c7.326,0,9.769-3.052,9.769-3.052-1.832,1.221-6.105-4.273-6.105-4.273,1.221.611,3.663,0,3.663,0-3.663-.611-6.105-7.326-6.105-7.326.611,1.221,3.663,1.221,3.663,1.221-4.884-4.884-2.442-9.768-2.442-9.768C1812.105,920.379,1823.129,921.6,1823.129,921.6Z" transform="translate(-1806 -913.135)" fill="#739db9"/></svg>