<svg xmlns="http://www.w3.org/2000/svg" width="30" height="30" viewBox="0 0 30 30"><path d="M-96.651,187.444a5.323,5.323,0,0,1,5.317,5.318v12.128a5.323,5.323,0,0,1-5.317,5.317h-12.128a5.323,5.323,0,0,1-5.318-5.317V192.761a5.323,5.323,0,0,1,5.318-5.318h12.128m0-3.619h-12.128a8.962,8.962,0,0,0-8.936,8.936v12.128a8.962,8.962,0,0,0,8.936,8.936h12.128a8.962,8.962,0,0,0,8.936-8.936V192.761a8.962,8.962,0,0,0-8.936-8.936Z" transform="translate(117.715 -183.825)" fill="#192f60"/><path d="M-82.8,191.825a1.915,1.915,0,0,0-1.915,1.915,1.915,1.915,0,0,0,1.915,1.915,1.915,1.915,0,0,0,1.915-1.915,1.915,1.915,0,0,0-1.915-1.915Z" transform="translate(105.779 -186.719)" fill="#192f60"/><g transform="translate(7.021 7.021)"><path d="M-98.736,198.444a4.365,4.365,0,0,1,4.36,4.36,4.365,4.365,0,0,1-4.36,4.36,4.365,4.365,0,0,1-4.36-4.36,4.365,4.365,0,0,1,4.36-4.36m0-3.618a7.978,7.978,0,0,0-7.979,7.979,7.979,7.979,0,0,0,7.979,7.979,7.979,7.979,0,0,0,7.979-7.979,7.979,7.979,0,0,0-7.979-7.979Z" transform="translate(106.715 -194.825)" fill="#192f60"/></g></svg>